<mxfile host="app.diagrams.net" modified="2021-02-16T19:07:48.197Z" agent="5.0 (Macintosh; Intel Mac OS X 11_0_1) AppleWebKit/537.36 (KHTML, like Gecko) Chrome/88.0.4324.150 Safari/537.36" etag="vXtchMD_SBTocURntqyE" version="14.3.0" type="github">
  <diagram id="RsWxhXp1NrIKDOrXXhIt" name="Page-1">
    <mxGraphModel dx="1186" dy="634" grid="1" gridSize="10" guides="1" tooltips="1" connect="1" arrows="1" fold="1" page="1" pageScale="1" pageWidth="850" pageHeight="1100" math="0" shadow="0">
      <root>
        <mxCell id="0" />
        <mxCell id="1" parent="0" />
        <mxCell id="iF7cu4nHeBM_mwjQh_Qt-1" value="" style="rounded=1;whiteSpace=wrap;html=1;" parent="1" vertex="1">
          <mxGeometry x="110" y="830" width="250" height="90" as="geometry" />
        </mxCell>
        <mxCell id="iF7cu4nHeBM_mwjQh_Qt-2" value="" style="rounded=1;whiteSpace=wrap;html=1;" parent="1" vertex="1">
          <mxGeometry x="100" y="820" width="250" height="90" as="geometry" />
        </mxCell>
        <mxCell id="iF7cu4nHeBM_mwjQh_Qt-3" value="" style="rounded=1;whiteSpace=wrap;html=1;" parent="1" vertex="1">
          <mxGeometry x="90" y="810" width="250" height="90" as="geometry" />
        </mxCell>
        <mxCell id="iF7cu4nHeBM_mwjQh_Qt-4" value="" style="rounded=0;whiteSpace=wrap;html=1;" parent="1" vertex="1">
          <mxGeometry x="100" y="440" width="690" height="280" as="geometry" />
        </mxCell>
        <mxCell id="iF7cu4nHeBM_mwjQh_Qt-5" value="" style="rounded=0;whiteSpace=wrap;html=1;" parent="1" vertex="1">
          <mxGeometry x="90" y="430" width="690" height="280" as="geometry" />
        </mxCell>
        <mxCell id="iF7cu4nHeBM_mwjQh_Qt-6" value="" style="rounded=0;whiteSpace=wrap;html=1;" parent="1" vertex="1">
          <mxGeometry x="80" y="420" width="690" height="280" as="geometry" />
        </mxCell>
        <mxCell id="iF7cu4nHeBM_mwjQh_Qt-7" value="user" style="shape=umlActor;verticalLabelPosition=bottom;verticalAlign=top;html=1;outlineConnect=0;" parent="1" vertex="1">
          <mxGeometry x="110" y="110" width="30" height="60" as="geometry" />
        </mxCell>
        <mxCell id="iF7cu4nHeBM_mwjQh_Qt-8" value="CDN&lt;br&gt;JS, CSS, Images&amp;nbsp;&lt;br&gt;(static assets)" style="rounded=1;whiteSpace=wrap;html=1;" parent="1" vertex="1">
          <mxGeometry x="420" y="220" width="180" height="70" as="geometry" />
        </mxCell>
        <mxCell id="iF7cu4nHeBM_mwjQh_Qt-9" value="" style="rounded=1;whiteSpace=wrap;html=1;" parent="1" vertex="1">
          <mxGeometry x="100" y="440" width="610" height="240" as="geometry" />
        </mxCell>
        <mxCell id="iF7cu4nHeBM_mwjQh_Qt-10" value="Express/Node.js OR Apache/PHP" style="rounded=0;whiteSpace=wrap;html=1;" parent="1" vertex="1">
          <mxGeometry x="170" y="440" width="250" height="20" as="geometry" />
        </mxCell>
        <mxCell id="iF7cu4nHeBM_mwjQh_Qt-11" style="edgeStyle=orthogonalEdgeStyle;rounded=0;orthogonalLoop=1;jettySize=auto;html=1;exitX=0.5;exitY=1;exitDx=0;exitDy=0;startArrow=classic;startFill=1;endArrow=classic;endFill=1;targetPerimeterSpacing=0;" parent="1" source="iF7cu4nHeBM_mwjQh_Qt-12" edge="1">
          <mxGeometry relative="1" as="geometry">
            <mxPoint x="340" y="630" as="targetPoint" />
          </mxGeometry>
        </mxCell>
        <mxCell id="iF7cu4nHeBM_mwjQh_Qt-12" value="photos service&lt;br&gt;REST API" style="rounded=1;whiteSpace=wrap;html=1;" parent="1" vertex="1">
          <mxGeometry x="500" y="520" width="120" height="60" as="geometry" />
        </mxCell>
        <mxCell id="iF7cu4nHeBM_mwjQh_Qt-13" style="edgeStyle=orthogonalEdgeStyle;rounded=0;orthogonalLoop=1;jettySize=auto;html=1;exitX=0.75;exitY=0;exitDx=0;exitDy=0;entryX=0.5;entryY=1;entryDx=0;entryDy=0;startArrow=classic;startFill=1;endArrow=classic;endFill=1;targetPerimeterSpacing=0;" parent="1" source="iF7cu4nHeBM_mwjQh_Qt-15" target="iF7cu4nHeBM_mwjQh_Qt-31" edge="1">
          <mxGeometry relative="1" as="geometry">
            <Array as="points">
              <mxPoint x="450" y="330" />
              <mxPoint x="730" y="330" />
            </Array>
          </mxGeometry>
        </mxCell>
        <mxCell id="iF7cu4nHeBM_mwjQh_Qt-14" style="edgeStyle=orthogonalEdgeStyle;rounded=0;orthogonalLoop=1;jettySize=auto;html=1;exitX=0.5;exitY=1;exitDx=0;exitDy=0;entryX=0.5;entryY=0;entryDx=0;entryDy=0;startArrow=classic;startFill=1;endArrow=classic;endFill=1;targetPerimeterSpacing=0;" parent="1" source="iF7cu4nHeBM_mwjQh_Qt-15" target="iF7cu4nHeBM_mwjQh_Qt-35" edge="1">
          <mxGeometry relative="1" as="geometry" />
        </mxCell>
        <mxCell id="iF7cu4nHeBM_mwjQh_Qt-15" value="photosUp service&lt;br&gt;REST API" style="rounded=1;whiteSpace=wrap;html=1;" parent="1" vertex="1">
          <mxGeometry x="360" y="530" width="120" height="60" as="geometry" />
        </mxCell>
        <mxCell id="iF7cu4nHeBM_mwjQh_Qt-16" style="edgeStyle=orthogonalEdgeStyle;rounded=0;orthogonalLoop=1;jettySize=auto;html=1;exitX=0.5;exitY=1;exitDx=0;exitDy=0;startArrow=classic;startFill=1;endArrow=classic;endFill=1;targetPerimeterSpacing=0;" parent="1" source="iF7cu4nHeBM_mwjQh_Qt-17" target="iF7cu4nHeBM_mwjQh_Qt-35" edge="1">
          <mxGeometry relative="1" as="geometry" />
        </mxCell>
        <mxCell id="iF7cu4nHeBM_mwjQh_Qt-17" value="users&amp;nbsp;service&lt;br&gt;REST API" style="rounded=1;whiteSpace=wrap;html=1;" parent="1" vertex="1">
          <mxGeometry x="210" y="540" width="120" height="60" as="geometry" />
        </mxCell>
        <mxCell id="iF7cu4nHeBM_mwjQh_Qt-18" value="&quot;/&quot; (root path)" style="rounded=1;whiteSpace=wrap;html=1;" parent="1" vertex="1">
          <mxGeometry x="120" y="470" width="120" height="60" as="geometry" />
        </mxCell>
        <mxCell id="iF7cu4nHeBM_mwjQh_Qt-19" style="edgeStyle=orthogonalEdgeStyle;rounded=0;orthogonalLoop=1;jettySize=auto;html=1;exitX=0.084;exitY=0.983;exitDx=0;exitDy=0;entryX=0.142;entryY=-0.033;entryDx=0;entryDy=0;entryPerimeter=0;targetPerimeterSpacing=0;startArrow=classic;startFill=1;exitPerimeter=0;" parent="1" source="iF7cu4nHeBM_mwjQh_Qt-28" target="iF7cu4nHeBM_mwjQh_Qt-18" edge="1">
          <mxGeometry relative="1" as="geometry" />
        </mxCell>
        <mxCell id="iF7cu4nHeBM_mwjQh_Qt-20" style="edgeStyle=orthogonalEdgeStyle;rounded=0;orthogonalLoop=1;jettySize=auto;html=1;exitX=1;exitY=0.5;exitDx=0;exitDy=0;entryX=0;entryY=0.5;entryDx=0;entryDy=0;startArrow=classic;startFill=1;targetPerimeterSpacing=0;" parent="1" source="iF7cu4nHeBM_mwjQh_Qt-21" target="iF7cu4nHeBM_mwjQh_Qt-8" edge="1">
          <mxGeometry relative="1" as="geometry" />
        </mxCell>
        <mxCell id="iF7cu4nHeBM_mwjQh_Qt-21" value="index.html" style="rounded=1;whiteSpace=wrap;html=1;" parent="1" vertex="1">
          <mxGeometry x="120" y="230" width="120" height="50" as="geometry" />
        </mxCell>
        <mxCell id="iF7cu4nHeBM_mwjQh_Qt-22" style="edgeStyle=orthogonalEdgeStyle;rounded=0;orthogonalLoop=1;jettySize=auto;html=1;exitX=0.51;exitY=1.033;exitDx=0;exitDy=0;entryX=0.25;entryY=0;entryDx=0;entryDy=0;startArrow=classic;startFill=1;targetPerimeterSpacing=0;exitPerimeter=0;" parent="1" source="iF7cu4nHeBM_mwjQh_Qt-28" target="iF7cu4nHeBM_mwjQh_Qt-15" edge="1">
          <mxGeometry relative="1" as="geometry">
            <Array as="points">
              <mxPoint x="442" y="480" />
              <mxPoint x="390" y="480" />
            </Array>
          </mxGeometry>
        </mxCell>
        <mxCell id="iF7cu4nHeBM_mwjQh_Qt-23" style="edgeStyle=orthogonalEdgeStyle;rounded=0;orthogonalLoop=1;jettySize=auto;html=1;exitX=0.5;exitY=1;exitDx=0;exitDy=0;entryX=0.5;entryY=0;entryDx=0;entryDy=0;startArrow=classic;startFill=1;targetPerimeterSpacing=0;" parent="1" source="iF7cu4nHeBM_mwjQh_Qt-28" target="iF7cu4nHeBM_mwjQh_Qt-12" edge="1">
          <mxGeometry relative="1" as="geometry">
            <Array as="points">
              <mxPoint x="440" y="400" />
              <mxPoint x="440" y="480" />
              <mxPoint x="560" y="480" />
            </Array>
          </mxGeometry>
        </mxCell>
        <mxCell id="iF7cu4nHeBM_mwjQh_Qt-24" style="edgeStyle=orthogonalEdgeStyle;rounded=0;orthogonalLoop=1;jettySize=auto;html=1;exitX=0.5;exitY=1;exitDx=0;exitDy=0;entryX=0.5;entryY=0;entryDx=0;entryDy=0;startArrow=classic;startFill=1;targetPerimeterSpacing=0;" parent="1" source="iF7cu4nHeBM_mwjQh_Qt-28" target="iF7cu4nHeBM_mwjQh_Qt-17" edge="1">
          <mxGeometry relative="1" as="geometry">
            <Array as="points">
              <mxPoint x="440" y="400" />
              <mxPoint x="440" y="480" />
              <mxPoint x="260" y="480" />
            </Array>
          </mxGeometry>
        </mxCell>
        <mxCell id="iF7cu4nHeBM_mwjQh_Qt-25" value="" style="shape=flexArrow;endArrow=classic;html=1;" parent="1" edge="1">
          <mxGeometry width="50" height="50" relative="1" as="geometry">
            <mxPoint x="150" y="140" as="sourcePoint" />
            <mxPoint x="200" y="210" as="targetPoint" />
          </mxGeometry>
        </mxCell>
        <mxCell id="iF7cu4nHeBM_mwjQh_Qt-26" style="edgeStyle=orthogonalEdgeStyle;rounded=0;orthogonalLoop=1;jettySize=auto;html=1;exitX=0.25;exitY=0;exitDx=0;exitDy=0;entryX=0.5;entryY=1;entryDx=0;entryDy=0;startArrow=classic;startFill=1;targetPerimeterSpacing=0;" parent="1" source="iF7cu4nHeBM_mwjQh_Qt-28" target="iF7cu4nHeBM_mwjQh_Qt-21" edge="1">
          <mxGeometry relative="1" as="geometry" />
        </mxCell>
        <mxCell id="iF7cu4nHeBM_mwjQh_Qt-27" style="edgeStyle=orthogonalEdgeStyle;rounded=0;orthogonalLoop=1;jettySize=auto;html=1;exitX=0.5;exitY=0;exitDx=0;exitDy=0;entryX=0.5;entryY=1;entryDx=0;entryDy=0;startArrow=classic;startFill=1;targetPerimeterSpacing=0;" parent="1" source="iF7cu4nHeBM_mwjQh_Qt-28" target="iF7cu4nHeBM_mwjQh_Qt-8" edge="1">
          <mxGeometry relative="1" as="geometry" />
        </mxCell>
        <mxCell id="iF7cu4nHeBM_mwjQh_Qt-28" value="Load balancer" style="rounded=0;whiteSpace=wrap;html=1;" parent="1" vertex="1">
          <mxGeometry x="80" y="340" width="710" height="60" as="geometry" />
        </mxCell>
        <mxCell id="iF7cu4nHeBM_mwjQh_Qt-29" value="users, photosMeta" style="shape=cylinder3;whiteSpace=wrap;html=1;boundedLbl=1;backgroundOutline=1;size=15;" parent="1" vertex="1">
          <mxGeometry x="140" y="840" width="150" height="50" as="geometry" />
        </mxCell>
        <mxCell id="iF7cu4nHeBM_mwjQh_Qt-30" value="Mongo (sharded)" style="rounded=0;whiteSpace=wrap;html=1;" parent="1" vertex="1">
          <mxGeometry x="110" y="810" width="110" height="20" as="geometry" />
        </mxCell>
        <mxCell id="iF7cu4nHeBM_mwjQh_Qt-31" value="CDN&lt;br&gt;photos" style="rounded=1;whiteSpace=wrap;html=1;" parent="1" vertex="1">
          <mxGeometry x="640" y="220" width="180" height="70" as="geometry" />
        </mxCell>
        <mxCell id="iF7cu4nHeBM_mwjQh_Qt-32" value="" style="endArrow=none;dashed=1;html=1;" parent="1" edge="1">
          <mxGeometry width="50" height="50" relative="1" as="geometry">
            <mxPoint x="50" y="770" as="sourcePoint" />
            <mxPoint x="820" y="770" as="targetPoint" />
          </mxGeometry>
        </mxCell>
        <mxCell id="iF7cu4nHeBM_mwjQh_Qt-33" value="" style="endArrow=none;dashed=1;html=1;" parent="1" edge="1">
          <mxGeometry width="50" height="50" relative="1" as="geometry">
            <mxPoint x="50" y="324" as="sourcePoint" />
            <mxPoint x="820" y="324" as="targetPoint" />
          </mxGeometry>
        </mxCell>
        <mxCell id="iF7cu4nHeBM_mwjQh_Qt-34" style="edgeStyle=orthogonalEdgeStyle;rounded=0;orthogonalLoop=1;jettySize=auto;html=1;exitX=0.5;exitY=1;exitDx=0;exitDy=0;entryX=0.5;entryY=0;entryDx=0;entryDy=0;startArrow=classic;startFill=1;endArrow=classic;endFill=1;targetPerimeterSpacing=0;" parent="1" source="iF7cu4nHeBM_mwjQh_Qt-35" target="iF7cu4nHeBM_mwjQh_Qt-3" edge="1">
          <mxGeometry relative="1" as="geometry" />
        </mxCell>
        <mxCell id="iF7cu4nHeBM_mwjQh_Qt-35" value="mongos query router" style="rounded=1;whiteSpace=wrap;html=1;" parent="1" vertex="1">
          <mxGeometry x="140" y="630" width="390" height="40" as="geometry" />
        </mxCell>
      </root>
    </mxGraphModel>
  </diagram>
</mxfile>
